<svg baseProfile="tiny" xmlns="http://www.w3.org/2000/svg" preserveAspectRatio="xMinYMin meet" xmlns:xlink="http://www.w3.org/1999/xlink" viewBox="0 0 340 340" width="340" height="340"><g transform="translate(310)"><path fill="none" d="M6.91 6.19H20.7v12.58H6.91z"/><path fill="#fff" d="M11.415 10.568h4.76v.81h-4.76zm0 1.51h4.76v.807h-4.76zm0 1.552h4.76v.807h-4.76z"/></g><g transform="translate(0 30)"><defs><g id="d" fill="#fff" transform="scale(2) translate(20 79)"><path d="M5.482 31.32C2.162 28 .11 23.42.11 18.357.11 8.232 8.32.024 18.442.024c10.126 0 18.34 8.208 18.34 18.334h-10.74c0-4.194-3.405-7.593-7.6-7.593-4.194 0-7.593 3.4-7.593 7.593 0 2.095.85 3.993 2.22 5.363h.004c1.375 1.38 2.52 1.78 5.368 2.233 5.066.527 9.648 2.054 12.966 5.372 3.318 3.32 5.372 7.9 5.372 12.962 0 10.126-8.213 18.34-18.34 18.34C8.323 62.625.11 54.41.11 44.285h10.74c0 4.194 3.4 7.598 7.593 7.598 4.195 0 7.6-3.404 7.6-7.598 0-2.095-.852-3.988-2.222-5.363h-.003c-1.375-1.375-3.348-1.85-5.373-2.226v-.005c-4.91-.752-9.643-2.053-12.96-5.372zM73.452.024l-12.97 62.6h-10.74L36.782.024h10.74l7.6 36.664L62.712.024h10.74zM91.792 25.952h18.334v18.334h.005c0 10.127-8.21 18.34-18.337 18.34-10.127 0-18.334-8.213-18.334-18.34V18.36h-.006c0-10.127 8.212-18.335 18.34-18.335 10.12 0 18.333 8.208 18.333 18.334h-10.74c0-4.19-3.405-7.596-7.594-7.596-4.195 0-7.594 3.404-7.594 7.594v25.926c0 4.195 3.4 7.594 7.593 7.594 4.19 0 7.588-3.4 7.593-7.59V36.7h-7.593V25.952z"/></g></defs><path id="c" d="M8.5 150h283v100c0 23.5-18 41.5-41.5 41.5H50c-23.5 0-41.5-18-41.5-41.5z"/><g stroke-width="38.009" stroke="#000"><g id="b" transform="translate(150 150)"><path id="a" fill="#ffb13b" d="M-84.15-15.85a22.417 22.417 0 1 0 0 31.7h168.3a22.417 22.417 0 1 0 0-31.7z"/><use xlink:href="#a" transform="rotate(45)"/><use xlink:href="#a" transform="rotate(90)"/><use xlink:href="#a" transform="rotate(135)"/></g></g><use xlink:href="#b"/><use xlink:href="#c" opacity=".85"/><use xlink:href="#d"/></g></svg>